<svg xmlns="http://www.w3.org/2000/svg" width="14.753" height="17.293" viewBox="0 0 14.753 17.293"><defs><style>.a{fill:none;stroke:#252629;stroke-width:0.5px;}</style></defs><g transform="matrix(0.966, -0.259, 0.259, 0.966, -0.689, 3.975)"><g transform="translate(4.443 0)"><g transform="translate(0 0)"><path class="a" d="M7.863.907a3.1,3.1,0,0,0-4.38,0L.9,3.5a3.126,3.126,0,0,0,0,4.38,2.947,2.947,0,0,0,.623.472l.472-.472a1.064,1.064,0,0,0,.2-.934,1.494,1.494,0,0,1-.2-.161,1.565,1.565,0,0,1,0-2.19L4.579,2a1.548,1.548,0,0,1,2.19,2.19L5.058,5.9a4.457,4.457,0,0,1,.194,1.992c.007-.007.016-.012.024-.019L7.863,5.287A3.1,3.1,0,0,0,7.863.907Z"/></g></g><g transform="translate(0 4.665)"><g transform="translate(0 0)"><path class="a" d="M8.076.472A2.947,2.947,0,0,0,7.453,0L6.981.472a1.063,1.063,0,0,0-.2.933,1.494,1.494,0,0,1,.2.161,1.565,1.565,0,0,1,0,2.19L4.192,6.546A1.548,1.548,0,0,1,2,4.356L3.913,2.445A4.456,4.456,0,0,1,3.72.453C3.712.46,3.7.465,3.7.472L.907,3.261a3.1,3.1,0,0,0,4.38,4.38L8.076,4.852A3.125,3.125,0,0,0,8.076.472Z"/></g></g></g></svg>